<?xml version="1.0" encoding="UTF-8"?>
<svg width="32" height="32" viewBox="0 0 32 32" fill="none" xmlns="http://www.w3.org/2000/svg">
    <path d="M16 32C24.8366 32 32 24.8366 32 16C32 7.16344 24.8366 0 16 0C7.16344 0 0 7.16344 0 16C0 24.8366 7.16344 32 16 32Z" fill="#F3BA2F"/>
    <path d="M12.116 14.404L16 10.52L19.886 14.406L22.146 12.146L16 6L9.856 12.144L12.116 14.404Z" fill="white"/>
    <path d="M16 21.48L12.116 17.596L9.856 19.854L16 26L22.146 19.854L19.886 17.594L16 21.48Z" fill="white"/>
    <path d="M19.886 14.406L17.626 16.666L16 15.04L14.374 16.666L12.114 14.406L10.488 16.032L12.748 18.292L14.374 16.666L16 18.292L17.626 16.666L19.252 18.292L21.512 16.032L19.886 14.406Z" fill="white"/>
</svg> 