<?xml version="1.0" encoding="UTF-8"?>
<svg width="32" height="32" viewBox="0 0 32 32" fill="none" xmlns="http://www.w3.org/2000/svg">
    <defs>
        <linearGradient id="solanaGradient" x1="0%" y1="0%" x2="100%" y2="100%">
            <stop offset="0%" style="stop-color:#9945FF"/>
            <stop offset="100%" style="stop-color:#14F195"/>
        </linearGradient>
    </defs>
    <path d="M6.25 21.8683C6.44922 21.6691 6.71875 21.5495 7.00781 21.5495H29.7266C30.2148 21.5495 30.4492 22.1573 30.0859 22.5206L25.75 26.8565C25.5508 27.0558 25.2812 27.1753 24.9922 27.1753H2.27344C1.78516 27.1753 1.55078 26.5675 1.91406 26.2042L6.25 21.8683Z" fill="url(#solanaGradient)"/>
    <path d="M6.25 5.14355C6.45703 4.94434 6.72656 4.82471 7.00781 4.82471H29.7266C30.2148 4.82471 30.4492 5.43252 30.0859 5.79581L25.75 10.1317C25.5508 10.331 25.2812 10.4506 24.9922 10.4506H2.27344C1.78516 10.4506 1.55078 9.84277 1.91406 9.47948L6.25 5.14355Z" fill="url(#solanaGradient)"/>
    <path d="M25.75 13.4517C25.5508 13.2525 25.2812 13.1329 24.9922 13.1329H2.27344C1.78516 13.1329 1.55078 13.7407 1.91406 14.104L6.25 18.4399C6.44922 18.6392 6.71875 18.7588 7.00781 18.7588H29.7266C30.2148 18.7588 30.4492 18.151 30.0859 17.7877L25.75 13.4517Z" fill="url(#solanaGradient)"/>
</svg> 